<?xml version="1.0" standalone="no"?>
<!DOCTYPE svg PUBLIC "-//W3C//DTD SVG 20010904//EN"
 "http://www.w3.org/TR/2001/REC-SVG-20010904/DTD/svg10.dtd">
<svg version="1.0" xmlns="http://www.w3.org/2000/svg"
 width="1024.000000pt" height="1024.000000pt" viewBox="0 0 1024.000000 1024.000000"
 preserveAspectRatio="xMidYMid meet">

<g transform="translate(0.000000,1024.000000) scale(0.100000,-0.100000)"
fill="#000000" stroke="none">
<path d="M1963 6613 c32 -2 81 -2 110 0 29 2 3 3 -58 3 -60 0 -84 -1 -52 -3z"/>
<path d="M1818 6603 c7 -3 16 -2 19 1 4 3 -2 6 -13 5 -11 0 -14 -3 -6 -6z"/>
<path d="M2173 6603 c9 -2 23 -2 30 0 6 3 -1 5 -18 5 -16 0 -22 -2 -12 -5z"/>
<path d="M1758 6593 c7 -3 16 -2 19 1 4 3 -2 6 -13 5 -11 0 -14 -3 -6 -6z"/>
<path d="M2248 6593 c7 -3 16 -2 19 1 4 3 -2 6 -13 5 -11 0 -14 -3 -6 -6z"/>
<path d="M1708 6583 c7 -3 16 -2 19 1 4 3 -2 6 -13 5 -11 0 -14 -3 -6 -6z"/>
<path d="M1550 6540 c-8 -5 -10 -10 -5 -10 6 0 17 5 25 10 8 5 11 10 5 10 -5
0 -17 -5 -25 -10z"/>
<path d="M1500 6520 c-9 -6 -10 -10 -3 -10 6 0 15 5 18 10 8 12 4 12 -15 0z"/>
<path d="M2500 6520 c8 -5 20 -10 25 -10 6 0 3 5 -5 10 -8 5 -19 10 -25 10 -5
0 -3 -5 5 -10z"/>
<path d="M1384 6464 c-18 -14 -18 -14 6 -3 31 14 36 19 24 19 -6 0 -19 -7 -30
-16z"/>
<path d="M2601 6476 c2 -2 15 -9 29 -15 24 -11 24 -11 6 3 -16 13 -49 24 -35
12z"/>
<path d="M2710 6416 c0 -3 9 -10 20 -16 11 -6 20 -8 20 -6 0 3 -9 10 -20 16
-11 6 -20 8 -20 6z"/>
<path d="M1249 6379 l-24 -20 28 17 c15 9 27 18 27 20 0 8 -8 4 -31 -17z"/>
<path d="M2770 6376 c0 -2 8 -10 18 -17 15 -13 16 -12 3 4 -13 16 -21 21 -21
13z"/>
<path d="M1194 6338 l-19 -23 23 19 c21 18 27 26 19 26 -2 0 -12 -10 -23 -22z"/>
<path d="M2881 6279 c42 -41 99 -101 129 -134 29 -33 43 -46 30 -30 -42 58
-150 173 -192 206 -27 20 -14 4 33 -42z"/>
<path d="M1089 6243 c-68 -71 -150 -165 -103 -118 54 54 187 195 183 195 -2 0
-38 -35 -80 -77z"/>
<path d="M2213 6133 c26 -2 68 -2 95 0 26 2 4 3 -48 3 -52 0 -74 -1 -47 -3z"/>
<path d="M2368 6123 c7 -3 16 -2 19 1 4 3 -2 6 -13 5 -11 0 -14 -3 -6 -6z"/>
<path d="M930 6055 c-17 -25 -29 -45 -26 -45 3 0 19 20 36 45 17 25 29 45 26
45 -3 0 -19 -20 -36 -45z"/>
<path d="M2035 6090 c-3 -6 1 -7 9 -4 18 7 21 14 7 14 -6 0 -13 -4 -16 -10z"/>
<path d="M2460 6096 c0 -2 7 -7 16 -10 8 -3 12 -2 9 4 -6 10 -25 14 -25 6z"/>
<path d="M2000 6069 c0 -5 5 -7 10 -4 6 3 10 8 10 11 0 2 -4 4 -10 4 -5 0 -10
-5 -10 -11z"/>
<path d="M3066 6068 c24 -40 85 -133 91 -137 11 -10 -19 43 -55 97 -19 28 -37
52 -39 52 -2 0 -1 -6 3 -12z"/>
<path d="M1823 5903 c-84 -87 -163 -171 -175 -188 -12 -16 34 29 102 100 68
72 150 156 183 188 32 31 55 57 51 57 -4 0 -77 -71 -161 -157z"/>
<path d="M2550 6046 c0 -2 8 -10 18 -17 15 -13 16 -12 3 4 -13 16 -21 21 -21
13z"/>
<path d="M2619 5983 c18 -24 38 -46 44 -50 17 -10 -28 49 -54 72 -16 14 -13 6
10 -22z"/>
<path d="M875 5970 c-9 -16 -13 -30 -11 -30 3 0 12 14 21 30 9 17 13 30 11 30
-3 0 -12 -13 -21 -30z"/>
<path d="M815 5854 c-34 -75 -75 -195 -75 -218 1 -6 16 32 34 84 27 78 60 158
83 203 2 4 2 7 -2 7 -3 0 -21 -34 -40 -76z"/>
<path d="M2233 5913 c15 -2 39 -2 55 0 15 2 2 4 -28 4 -30 0 -43 -2 -27 -4z"/>
<path d="M2685 5896 c9 -14 28 -52 41 -83 13 -32 24 -51 24 -43 0 21 -55 136
-70 145 -7 4 -4 -4 5 -19z"/>
<path d="M3162 5914 c10 -34 72 -173 75 -170 5 5 -52 144 -68 166 -6 8 -9 10
-7 4z"/>
<path d="M2335 5900 c27 -12 43 -12 25 0 -8 5 -22 9 -30 9 -10 0 -8 -3 5 -9z"/>
<path d="M2118 5884 c-39 -21 -35 -28 5 -8 37 19 44 24 31 24 -5 -1 -21 -8
-36 -16z"/>
<path d="M2400 5874 c14 -10 43 -33 64 -53 29 -27 34 -29 20 -10 -19 27 -86
79 -100 79 -5 0 3 -7 16 -16z"/>
<path d="M1931 5708 c-151 -164 -181 -209 -181 -278 0 -80 62 -169 107 -154
14 4 15 4 4 -4 -10 -7 0 -14 40 -27 101 -33 135 -93 86 -151 -20 -23 -34 -28
-83 -32 -82 -5 -157 24 -231 91 -31 29 -58 51 -60 49 -3 -2 -8 0 -11 4 -4 4
-1 4 7 -1 7 -4 12 -4 9 1 -49 104 -51 112 -56 204 -3 77 0 106 16 155 22 65
21 89 -2 35 -7 -18 -15 -28 -17 -22 -2 6 -10 3 -19 -6 -13 -14 -12 -15 4 -9
16 7 18 3 11 -30 -4 -21 -9 -55 -11 -76 -1 -22 -5 -42 -8 -45 -6 -5 -9 24 -8
90 0 35 -1 37 -20 24 -11 -8 -28 -12 -38 -9 -12 3 -23 -3 -32 -16 -7 -12 -17
-21 -22 -21 -5 0 -1 9 9 20 10 11 14 20 9 21 -5 0 -31 1 -57 3 -29 2 -43 0
-35 -5 19 -12 3 -14 -46 -5 -23 4 -25 2 -16 -13 5 -10 6 -22 2 -26 -4 -5 -2
-5 4 -2 6 3 11 0 11 -8 0 -8 -4 -12 -9 -9 -4 3 -8 -2 -8 -10 0 -8 -4 -17 -9
-20 -4 -3 -7 5 -7 17 1 12 -2 27 -7 34 -8 11 -56 8 -67 -4 -3 -3 5 -3 17 0 13
3 26 1 29 -4 3 -5 11 -6 17 -3 7 4 4 -2 -6 -12 -12 -13 -20 -15 -25 -8 -4 6
-15 10 -24 8 -10 -1 -18 4 -18 12 0 8 -7 14 -15 14 -8 0 -18 0 -22 0 -5 0 -8
-3 -8 -7 0 -5 -6 -17 -12 -28 -12 -19 -12 -19 -13 5 0 20 -2 22 -10 10 -8 -13
-10 -13 -10 1 0 9 -7 19 -15 23 -18 7 -20 -5 -3 -22 10 -10 10 -15 -2 -22 -12
-8 -11 -11 8 -16 12 -4 22 -10 22 -15 0 -14 -23 -6 -41 16 -15 17 -19 18 -35
5 -18 -14 -18 -14 -5 3 8 10 20 16 28 13 7 -3 13 0 13 5 0 7 -11 9 -25 7 -14
-3 -28 -1 -32 5 -3 6 -1 7 5 3 6 -3 16 2 21 13 14 25 14 42 0 19 -17 -31 -46
-20 -40 15 0 4 -4 7 -10 7 -6 0 -9 -6 -6 -14 8 -20 -4 -28 -21 -13 -13 9 -14
9 -8 0 4 -8 2 -13 -4 -13 -6 0 -9 -4 -6 -8 2 -4 1 -14 -5 -22 -7 -12 -9 -10
-9 8 0 13 -4 20 -10 17 -17 -10 -11 7 7 22 16 13 16 13 -3 4 -24 -11 -41 -42
-22 -38 7 1 12 -3 13 -10 0 -6 3 -15 8 -19 4 -4 7 -12 7 -18 0 -6 -7 0 -16 13
-13 18 -18 20 -25 10 -5 -8 -9 -9 -9 -3 0 6 -7 11 -15 11 -8 0 -15 -6 -15 -14
0 -11 -5 -11 -20 -3 -21 11 -28 40 -9 40 6 0 9 -7 5 -15 -3 -8 -1 -15 4 -15 6
0 10 7 10 15 0 8 5 14 11 12 6 -1 13 6 14 17 3 14 1 16 -8 7 -16 -16 -44 -14
-50 3 -4 11 -1 13 11 10 16 -5 16 -5 0 5 -9 7 -15 20 -13 31 2 11 0 18 -5 15
-5 -3 -7 -14 -5 -24 3 -16 -2 -19 -22 -18 -16 1 -28 -4 -30 -13 -4 -12 -3 -12
5 -1 7 10 11 10 17 1 10 -16 -1 -24 -21 -16 -13 5 -15 14 -9 44 4 20 9 51 12
67 3 17 3 27 -1 24 -19 -18 -40 -195 -40 -344 0 -346 92 -603 311 -876 129
-161 353 -319 544 -384 166 -57 241 -69 439 -69 168 0 195 2 292 26 59 15 134
38 167 52 l60 24 238 -94 c130 -52 246 -94 256 -94 58 0 117 60 117 117 0 16
-18 115 -40 219 -23 104 -43 203 -47 220 -4 25 2 40 31 79 130 170 214 375
247 604 18 127 6 361 -25 493 -14 60 -30 116 -36 125 -10 16 -11 16 -6 1 19
-62 27 -102 22 -115 -4 -9 -2 -11 5 -7 9 5 10 -4 5 -32 -4 -23 -3 -34 2 -26
10 15 33 -151 30 -220 -1 -37 -2 -34 -9 22 -5 36 -9 77 -9 93 0 15 -3 27 -8
27 -5 0 -6 14 -4 31 3 23 1 30 -7 24 -7 -4 -10 -13 -8 -19 3 -7 1 -19 -4 -27
-7 -11 -9 -10 -9 4 0 10 -4 16 -9 12 -5 -3 -12 3 -14 12 -3 13 -5 10 -6 -7 -1
-14 -9 -34 -18 -45 -11 -14 -14 -15 -10 -3 7 19 -13 18 -39 -2 -11 -9 -15 -10
-10 -2 4 7 2 12 -4 12 -6 0 -8 5 -5 10 4 6 10 8 14 6 4 -3 13 -1 20 3 9 6 7
10 -8 14 -12 3 -21 1 -21 -5 0 -5 -5 -6 -12 -2 -6 4 -8 3 -5 -2 9 -16 -8 -35
-26 -28 -19 7 -23 24 -6 24 5 0 7 5 4 10 -5 8 -11 7 -21 -1 -12 -10 -13 -8 -8
7 5 18 5 18 -6 2 -6 -10 -15 -18 -20 -18 -5 0 -11 8 -13 18 -4 13 -5 11 -6 -5
0 -13 -6 -23 -12 -23 -5 0 -8 4 -5 9 4 5 -3 7 -15 4 -13 -4 -16 -8 -9 -13 6
-4 -5 -6 -24 -6 -21 1 -36 6 -36 13 0 7 7 10 15 7 8 -3 22 1 30 10 9 9 12 16
6 16 -5 0 -12 -4 -16 -10 -3 -5 -12 -7 -20 -4 -15 6 -35 -24 -28 -44 3 -6 10
-9 16 -5 7 3 8 2 4 -2 -13 -15 -36 -14 -30 1 6 16 -13 19 -23 3 -3 -6 -17 -9
-30 -6 -18 3 -22 1 -14 -8 16 -20 -14 -26 -39 -8 -15 10 -19 18 -12 27 7 8 5
12 -9 12 -20 0 -18 -8 14 -45 l21 -25 -28 18 c-16 10 -35 15 -43 12 -18 -7
-18 -8 7 50 25 55 37 198 22 254 -8 27 -9 13 -5 -56 8 -152 -40 -270 -149
-368 -40 -36 -130 -96 -144 -96 -2 0 -6 19 -10 43 -3 23 -11 66 -17 95 l-12
54 33 25 c48 38 83 115 87 193 l3 65 -9 -66 c-4 -37 -16 -82 -25 -100 -23 -46
-56 -80 -69 -72 -6 3 -8 2 -3 -2 4 -5 -2 -18 -13 -30 -18 -19 -18 -24 -6 -65
7 -25 16 -70 19 -100 5 -55 5 -55 -4 -10 -6 25 -17 69 -25 98 -8 29 -12 63 -9
75 5 20 4 20 -9 -3 -8 -14 -13 -27 -11 -30 2 -3 -5 -6 -16 -6 -18 0 -18 2 -5
12 20 14 20 24 1 24 -8 0 -15 5 -15 11 0 5 -5 7 -10 4 -8 -5 -7 -12 2 -23 10
-12 10 -14 0 -8 -14 8 -10 -33 8 -94 5 -19 10 -42 9 -50 0 -8 -9 14 -19 50
-10 35 -16 68 -14 72 3 5 0 8 -6 8 -6 0 -8 6 -4 13 4 6 4 9 -1 5 -8 -7 -80 77
-80 93 0 4 -4 11 -9 16 -5 5 -6 3 -2 -4 10 -19 -2 -16 -30 6 -13 10 -20 21
-16 25 3 4 -2 4 -11 0 -16 -6 -16 -8 5 -22 141 -93 202 -255 159 -422 -10 -41
-18 -79 -16 -85 1 -5 0 -6 -3 -2 -2 5 -16 -9 -29 -30 -14 -21 -52 -65 -85 -99
-32 -33 -58 -67 -56 -75 2 -8 -2 -13 -9 -12 -6 1 -60 -49 -119 -112 -91 -99
-118 -121 -182 -153 -73 -36 -80 -37 -181 -37 -124 0 -200 23 -284 86 -28 21
-55 35 -60 32 -6 -3 -7 -1 -4 4 4 6 -7 28 -24 49 -39 49 -44 53 -36 32 9 -25
0 -22 -14 3 -9 17 -8 20 2 14 8 -6 10 -4 6 6 -62 144 -62 141 -61 249 0 85 4
115 22 158 26 62 88 156 126 191 20 19 23 27 14 33 -10 7 -9 8 2 6 20 -3 62
21 55 32 -3 5 9 19 27 31 18 12 28 17 22 10 -14 -15 -2 -94 26 -175 l20 -59
-39 -39 c-116 -116 -114 -282 6 -387 57 -51 129 -75 197 -68 60 6 108 26 99
40 -4 6 -1 7 7 2 9 -6 45 25 116 100 57 59 102 112 101 118 -1 6 5 12 13 12 8
0 14 7 12 14 -1 7 2 10 7 7 14 -9 90 80 113 131 48 108 -19 228 -142 257 -14
3 -7 -2 15 -13 22 -11 33 -20 25 -20 -21 0 -98 37 -80 39 9 0 4 7 -12 16 -54
29 -65 95 -22 135 22 21 35 24 97 24 40 0 83 -4 97 -9 16 -5 22 -5 15 2 -33
32 -150 32 -209 0 -11 -7 -26 -13 -32 -14 -38 -6 -52 -16 -49 -34 3 -16 0 -18
-20 -10 -22 8 -25 6 -31 -27 -4 -19 -2 -51 4 -69 5 -19 7 -34 2 -34 -13 0 -22
68 -14 116 3 25 15 55 26 67 l19 22 -11 -23 c-13 -27 -4 -44 11 -22 5 8 7 25
4 38 -3 12 -1 22 4 22 5 0 12 -8 14 -17 2 -10 3 -8 2 5 -3 28 31 70 203 250
23 25 40 47 38 49 -2 2 -67 -65 -145 -149z m-591 -212 l25 4 -24 -14 c-20 -11
-27 -11 -38 -1 -17 17 -17 31 0 17 6 -5 23 -8 37 -6z m170 -11 c0 -17 -32 -13
-38 5 -3 7 0 10 7 6 6 -4 11 -2 11 4 0 6 5 8 10 5 6 -3 10 -12 10 -20z m-54
-10 c-2 -14 -16 -22 -16 -10 0 3 0 10 0 15 0 6 4 10 9 10 5 0 8 -7 7 -15z
m-494 -27 c-15 -15 -24 -6 -16 16 5 12 10 14 17 7 8 -8 8 -14 -1 -23z m31 12
c3 -12 0 -20 -8 -20 -8 0 -11 8 -8 20 3 11 7 20 8 20 1 0 5 -9 8 -20z m-270
-5 c-3 -9 -8 -14 -10 -11 -3 3 -2 9 2 15 9 16 15 13 8 -4z m440 -6 c-6 -6 -9
-18 -6 -25 3 -9 -2 -14 -13 -14 -14 0 -16 2 -6 9 8 4 13 11 13 15 -3 19 0 26
11 26 9 0 9 -3 1 -11z m672 1 c3 -5 1 -10 -4 -10 -6 0 -11 5 -11 10 0 6 2 10
4 10 3 0 8 -4 11 -10z m35 -6 c0 -8 -4 -12 -10 -9 -5 3 -10 10 -10 16 0 5 5 9
10 9 6 0 10 -7 10 -16z m1176 -9 c0 -13 -2 -22 -5 -20 -2 3 -9 0 -16 -5 -8 -7
-12 -5 -12 5 0 7 5 13 11 12 6 -1 10 6 8 16 -2 9 1 17 6 17 4 0 8 -11 8 -25z
m32 -10 c-3 -3 -9 2 -12 12 -6 14 -5 15 5 6 7 -7 10 -15 7 -18z m-2361 -57
c-2 -13 -4 -3 -4 22 0 25 2 35 4 23 2 -13 2 -33 0 -45z m523 42 c0 -5 -2 -10
-4 -10 -3 0 -8 5 -11 10 -3 6 -1 10 4 10 6 0 11 -4 11 -10z m1498 -15 c9 1 11
0 4 -2 -8 -3 -11 -11 -8 -18 3 -9 -2 -12 -15 -10 -18 4 -46 -29 -41 -48 1 -5
-2 -6 -7 -3 -5 4 -11 2 -13 -3 -4 -11 -105 -91 -115 -91 -4 0 6 10 22 23 64
49 112 98 131 132 10 19 20 31 22 26 2 -5 11 -8 20 -6z m-1265 -104 c-7 -11
-14 11 -18 60 l-5 54 13 -55 c7 -30 11 -57 10 -59z m77 77 c0 -18 11 -59 24
-90 28 -68 24 -78 -5 -14 -23 53 -40 136 -28 136 5 0 9 -15 9 -32z m-282 -3
c-3 -3 -9 2 -12 12 -6 14 -5 15 5 6 7 -7 10 -15 7 -18z m1552 12 c0 -8 -7 -14
-15 -14 -11 0 -12 4 -4 14 6 7 13 13 15 13 2 0 4 -6 4 -13z m-1010 -62 c14
-19 14 -19 -2 -6 -10 7 -18 18 -18 24 0 6 1 8 3 6 1 -2 9 -13 17 -24z m-1094
-10 c-3 -23 -12 -26 -13 -5 -1 11 2 20 7 20 4 0 7 -7 6 -15z m548 -60 c-14
-19 -29 -35 -31 -35 -5 0 7 18 36 53 26 31 23 18 -5 -18z m-557 -7 c-3 -8 -6
-5 -6 6 -1 11 2 17 5 13 3 -3 4 -12 1 -19z m1416 -14 c3 -18 1 -22 -6 -15 -12
12 -18 53 -6 46 3 -3 9 -16 12 -31z m1184 14 c-3 -8 -6 -5 -6 6 -1 11 2 17 5
13 3 -3 4 -12 1 -19z m-782 -28 c-3 -5 -12 -10 -18 -10 -7 0 -6 4 3 10 19 12
23 12 15 0z m-1302 -25 c-3 -9 -8 -14 -10 -11 -3 3 -2 9 2 15 9 16 15 13 8 -4z
m900 -46 c-6 -6 -7 3 -4 23 4 28 6 29 9 9 2 -13 0 -27 -5 -32z m1179 9 c-6 -6
-7 0 -4 19 5 21 7 23 10 9 2 -10 0 -22 -6 -28z m-1646 0 l29 -33 -32 29 c-31
28 -38 36 -30 36 2 0 16 -15 33 -32z m-939 -10 c-3 -7 -5 -2 -5 12 0 14 2 19
5 13 2 -7 2 -19 0 -25z m481 -3 c-6 -14 -13 -23 -15 -21 -5 5 15 46 22 46 3 0
-1 -11 -7 -25z m1159 -27 c-3 -8 -6 -5 -6 6 -1 11 2 17 5 13 3 -3 4 -12 1 -19z
m-577 -38 c8 -5 11 -10 5 -10 -5 0 -17 5 -25 10 -8 5 -10 10 -5 10 6 0 17 -5
25 -10z m-1043 -92 c-3 -7 -5 -2 -5 12 0 14 2 19 5 13 2 -7 2 -19 0 -25z m420
-60 c-3 -7 -5 -2 -5 12 0 14 2 19 5 13 2 -7 2 -19 0 -25z m1073 -51 c0 -2 -12
-14 -27 -28 l-28 -24 24 28 c23 25 31 32 31 24z m-1040 -82 c0 -5 -5 -3 -10 5
-5 8 -10 20 -10 25 0 6 5 3 10 -5 5 -8 10 -19 10 -25z m870 -98 c0 -2 -10 -12
-22 -23 l-23 -19 19 23 c18 21 26 27 26 19z m-503 -223 c-3 -3 -12 -4 -19 -1
-8 3 -5 6 6 6 11 1 17 -2 13 -5z m40 -10 c-3 -3 -12 -4 -19 -1 -8 3 -5 6 6 6
11 1 17 -2 13 -5z m1500 -416 c-3 -7 -5 -2 -5 12 0 14 2 19 5 13 2 -7 2 -19 0
-25z"/>
<path d="M4063 5755 c-194 -54 -334 -207 -378 -413 -45 -214 8 -426 138 -555
65 -63 167 -118 255 -136 132 -27 320 -2 420 56 95 55 173 157 206 267 8 25
11 48 8 50 -14 8 -216 0 -219 -9 -2 -6 -17 -34 -34 -63 -52 -91 -149 -138
-269 -130 -83 6 -143 33 -198 89 -82 82 -118 188 -109 323 6 105 36 181 95
247 64 72 125 99 222 99 41 0 92 -5 112 -10 56 -16 119 -69 157 -133 l34 -57
103 0 c56 0 105 4 108 8 3 4 -6 39 -19 77 -44 126 -148 228 -283 278 -74 27
-270 34 -349 12z"/>
<path d="M2521 5735 c1 -19 18 -51 18 -35 0 8 -4 22 -9 30 -5 8 -9 11 -9 5z"/>
<path d="M1610 5665 c-7 -9 -11 -17 -9 -20 3 -2 10 5 17 15 14 24 10 26 -8 5z"/>
<path d="M9100 5555 l0 -85 -65 0 -65 0 0 -80 0 -80 65 0 65 0 0 -233 c0 -273
9 -319 70 -378 55 -53 140 -70 264 -53 l46 7 0 83 0 84 -61 0 c-120 0 -129 19
-129 290 l0 200 95 0 95 0 0 80 0 80 -95 0 -95 0 0 85 0 85 -95 0 -95 0 0 -85z"/>
<path d="M888 5522 c4 -11 1 -13 -8 -7 -9 5 -11 4 -6 -4 6 -9 11 -9 22 0 18
15 18 26 0 26 -8 0 -12 -6 -8 -15z"/>
<path d="M1135 5520 c-3 -5 -12 -7 -20 -3 -8 3 -15 0 -15 -7 0 -6 -4 -8 -10
-5 -5 3 -10 1 -10 -5 0 -14 39 -3 60 16 8 8 11 14 8 14 -4 0 -9 -4 -13 -10z"/>
<path d="M1194 5515 c-9 -22 1 -29 15 -11 8 10 9 16 1 21 -5 3 -13 -1 -16 -10z"/>
<path d="M2877 5523 c-10 -9 -9 -23 1 -23 5 0 9 7 9 15 0 17 -1 18 -10 8z"/>
<path d="M2940 5509 c0 -5 5 -7 10 -4 6 3 10 8 10 11 0 2 -4 4 -10 4 -5 0 -10
-5 -10 -11z"/>
<path d="M3113 5503 c0 -9 4 -10 14 -2 7 6 13 12 13 14 0 1 -6 2 -13 2 -8 0
-14 -6 -14 -14z"/>
<path d="M3195 5480 c3 -5 8 -10 11 -10 2 0 4 5 4 10 0 6 -5 10 -11 10 -5 0
-7 -4 -4 -10z"/>
<path d="M5048 5471 c-110 -36 -178 -97 -232 -210 -30 -64 -31 -70 -31 -201 0
-126 2 -139 27 -192 38 -81 108 -152 187 -190 130 -62 326 -46 433 35 61 47
114 122 139 195 18 53 21 81 17 175 -3 96 -7 120 -31 170 -53 115 -129 184
-239 219 -77 23 -194 23 -270 -1z m218 -170 c51 -23 98 -80 114 -136 7 -25 11
-82 9 -133 -4 -82 -7 -95 -34 -134 -43 -61 -95 -88 -171 -88 -80 0 -141 36
-175 106 -21 42 -24 64 -24 149 0 83 4 107 22 140 54 102 160 141 259 96z"/>
<path d="M6001 5473 c-24 -8 -64 -35 -88 -59 l-43 -43 0 49 0 50 -100 0 -100
0 0 -405 0 -405 99 0 100 0 3 263 c3 258 3 263 28 306 33 60 75 83 146 82 72
0 113 -24 142 -81 21 -43 22 -54 22 -307 l0 -263 101 0 101 0 -4 303 c-4 282
-5 306 -26 357 -23 60 -75 117 -132 146 -49 25 -190 29 -249 7z"/>
<path d="M6868 5480 c-52 -16 -108 -54 -135 -94 l-28 -40 -3 62 -3 62 -94 0
-95 0 0 -405 0 -405 94 0 94 0 4 258 c3 227 5 261 22 292 40 76 84 103 166
103 68 0 111 -21 142 -70 22 -37 23 -45 26 -310 l3 -273 100 0 99 0 0 263 c0
147 -5 289 -11 322 -22 121 -86 201 -183 230 -53 16 -154 19 -198 5z"/>
<path d="M7593 5470 c-113 -37 -198 -135 -238 -275 -24 -81 -17 -247 14 -327
31 -81 104 -158 183 -193 74 -33 208 -45 300 -26 108 23 232 132 254 224 l6
27 -98 0 -99 -1 -20 -32 c-11 -18 -40 -42 -65 -55 -37 -19 -56 -23 -108 -19
-103 8 -168 69 -187 180 l-7 37 291 0 291 0 0 78 c0 91 -17 160 -56 232 -34
63 -81 105 -154 139 -76 35 -217 40 -307 11z m224 -149 c48 -22 91 -80 100
-135 l6 -36 -192 0 c-215 0 -208 -3 -172 75 48 104 153 143 258 96z"/>
<path d="M8435 5470 c-157 -52 -251 -187 -263 -372 -17 -297 143 -468 428
-456 84 3 105 8 163 36 96 47 174 145 194 243 l6 29 -97 0 -96 0 -14 -32 c-16
-40 -61 -83 -99 -97 -82 -31 -195 0 -240 67 -66 97 -61 278 10 363 82 97 247
89 311 -15 l27 -45 93 -1 c89 0 92 1 92 23 0 40 -56 141 -100 181 -72 65 -138
89 -255 93 -80 2 -112 -1 -160 -17z"/>
<path d="M2300 5424 c0 -21 17 -25 22 -6 3 11 0 19 -8 19 -8 0 -14 -6 -14 -13z"/>
<path d="M1405 5380 c-3 -5 -2 -10 4 -10 5 0 13 5 16 10 3 6 2 10 -4 10 -5 0
-13 -4 -16 -10z"/>
</g>
</svg>
